<svg xmlns="http://www.w3.org/2000/svg" xmlns:xlink="http://www.w3.org/1999/xlink" viewBox="0 0 1351.98 296.36"><defs><style>.cls-1{fill:none;}.cls-2{clip-path:url(#clip-path);}.cls-3{fill:#f4981d;fill-opacity:0.79;}.cls-4{fill:#844795;fill-opacity:0.71;}.cls-10,.cls-11,.cls-4,.cls-8,.cls-9{fill-rule:evenodd;}.cls-5{fill:#3275bb;}.cls-6{fill:#ebe54b;}.cls-7{fill:#ec6f8d;}.cls-8{fill:#14351c;fill-opacity:0.86;}.cls-9{fill:#cc1428;fill-opacity:0.76;}.cls-10{fill:#5eb130;fill-opacity:0.91;}.cls-11{fill:#7876b4;}.cls-12{fill:#c4c4c4;}</style><clipPath id="clip-path"><rect class="cls-1" x="89.06" width="1184.84" height="186.74"/></clipPath></defs><g id="Camada_2" data-name="Camada 2"><g id="Camada_1-2" data-name="Camada 1"><g class="cls-2"><path class="cls-3" d="M325.27,65.61a8.59,8.59,0,0,1-4.17,3.52,8.47,8.47,0,0,1-5.42.29,8.6,8.6,0,0,1-4.51-3.07,8.81,8.81,0,0,1-1.8-5.19,8.69,8.69,0,0,1,.76-3.49,8.55,8.55,0,0,1,2.11-2.87l-.92-.54a8.47,8.47,0,0,1-7.79-.3,8.55,8.55,0,0,1-4.3,1.09,8.42,8.42,0,0,1-5-1.6,8.68,8.68,0,0,1-3.14-4.25,8.64,8.64,0,0,1-3.55,1.19,8.77,8.77,0,0,1-2.33,2.84A8.45,8.45,0,0,1,278.32,55,8.48,8.48,0,0,1,275,53.54a8.5,8.5,0,0,1-5.35,1.87,8.63,8.63,0,0,1-2.2-.29,8.66,8.66,0,0,1-2.7,2.34,8.52,8.52,0,0,1-3.4,1,8.7,8.7,0,0,1-2.77,5.6,8.48,8.48,0,0,1-5.77,2.24A8.61,8.61,0,0,1,247,64.11a41.46,41.46,0,0,0-11.27,28.16,40.15,40.15,0,0,0,.62,7H334.6a39.2,39.2,0,0,0,.61-7A41.18,41.18,0,0,0,325.27,65.61Z"/><path class="cls-3" d="M201.71,80.46v.88a49.43,49.43,0,0,1-.87,9.24,48.88,48.88,0,0,0-16.61-28.23,47.42,47.42,0,0,0-60.95,0,48.94,48.94,0,0,0-16.61,28.23,49.4,49.4,0,0,1-.92-9.24v-.88a40,40,0,0,0-1.07,18.82h98.2A40,40,0,0,0,201.71,80.46Z"/><path class="cls-3" d="M425.35,45.38H409.66c-23.73,3.37-41.87,21.72-41.87,43.85a40.08,40.08,0,0,0,1.28,10H466a40.07,40.07,0,0,0,1.27-10C467.23,67.1,449.08,48.75,425.35,45.38Z"/><path class="cls-3" d="M294.26,136c23.28,3.74,40.95,21.87,40.95,43.73a39.2,39.2,0,0,1-.61,7h34.47a40,40,0,0,1-1.28-10c0-21.87,17.68-40,41-43.73-19.61-3.12-35.24-16.49-39.68-33.69H334.6C331.29,117.92,315,132.7,294.26,136Z"/><path class="cls-3" d="M89.06,186.73h15.62a40.24,40.24,0,0,1-.62-7c0-21.86,17.68-40,41-43.73-20.74-3.29-37-18.07-40.34-36.71H89.06Z"/><path class="cls-3" d="M162.54,136c23.28,3.74,41,21.87,41,43.73a40.24,40.24,0,0,1-.62,7h33.51a40.23,40.23,0,0,1-.61-7c0-21.86,17.68-40,41-43.73-20.75-3.29-37-18.07-40.35-36.71H202.88C199.57,117.92,183.27,132.7,162.54,136Z"/><path class="cls-3" d="M756.74,89.31c0,.64,0,1.28.06,1.92.11-3.42.38-6.77.78-10.06A39.74,39.74,0,0,0,756.74,89.31Z"/><path class="cls-3" d="M720.76,76.11c-6.82-11.32-24.63-19.39-45.56-19.39-23.63,0-43.32,10.26-47.63,24a17,17,0,0,1-.47-1.87,40.16,40.16,0,0,0-1.73,20.53h98.21a39.92,39.92,0,0,0-2.82-23.22Z"/><path class="cls-3" d="M806.73,47.14c-21.82,0-40.37,21.81-47.18,52.26h94.37C847.1,69,828.55,47.14,806.73,47.14Z"/><path class="cls-3" d="M551.51,136.06c23.29,3.73,41,21.87,41,43.72a41.46,41.46,0,0,1-.61,6.95h33.54a39.46,39.46,0,0,1-.61-6.95c0-21.85,17.67-40,41-43.72-20.73-3.3-37-18.08-40.33-36.71H591.86C588.54,118,572.25,132.76,551.51,136.06Z"/><path class="cls-3" d="M591.13,82.11c-.21,1.38-.45,2.75-.78,4.1a47.09,47.09,0,0,0-12.1-23.33c-18.37-19.24-49.36-19-69.17.55a52.61,52.61,0,0,0-13,20.95c-.43-1.48-.78-3-1.07-4.47a39.94,39.94,0,0,0-1.35,19.38h98.21A39.86,39.86,0,0,0,591.13,82.11Z"/><path class="cls-3" d="M756.82,99.35H723.58c-3.31,18.66-19.6,33.41-40.34,36.71,23.28,3.73,41,21.87,41,43.72a40.43,40.43,0,0,1-.6,6.95H758a39.92,39.92,0,0,1-1.29-10c0-21.85,17.68-40,41-43.73-18.46-2.93-33.39-14.93-38.78-30.72-.52,2.58-.92,5.22-1.28,7.92C757.21,106.68,756.94,103.06,756.82,99.35Z"/><path class="cls-3" d="M478.18,99.35v-.07H466c-4.46,17.2-20.09,30.57-39.69,33.69,23.28,3.73,41,21.86,41,43.73a40,40,0,0,1-1.27,10H478V99.35Z"/><path class="cls-3" d="M534,136.06c-20.73-3.3-37-18.08-40.33-36.71H478v87.38h15.62a39.46,39.46,0,0,1-.61-6.95C493,157.93,510.71,139.76,534,136.06Z"/><path class="cls-4" d="M104.23,96.16c4.48-24.21,25-42.49,49.55-42.49S198.83,72,203.37,96.16a55.75,55.75,0,0,0,.92-10v-.93c-.49-28.53-22.88-51.52-50.44-51.52s-50,23-50.51,51.51v.93A54.93,54.93,0,0,0,104.23,96.16Z"/><path class="cls-5" d="M509.08,63.45c19.81-19.54,50.76-19.79,69.17-.55a47.09,47.09,0,0,1,12.1,23.33c.33-1.35.57-2.72.78-4.1A52.32,52.32,0,0,0,589.32,59a51.61,51.61,0,0,0-11.6-19.94C558.8,18.66,527.88,17,508.64,35.37,496.45,47,491.89,64,495,80c.29,1.5.64,3,1.07,4.47A52.64,52.64,0,0,1,509.08,63.45Z"/><path class="cls-6" d="M675.2,56.72c20.93,0,38.74,8.07,45.56,19.39a21.11,21.11,0,0,1,2.08,4.56,18.71,18.71,0,0,0,.92-5.6c0-16.35-21.72-29.59-48.52-29.59S626.69,58.69,626.69,75a19.7,19.7,0,0,0,.91,5.6C631.88,67,651.57,56.72,675.2,56.72Z"/><path class="cls-7" d="M856.64,99.35c0-1.31.07-2.62.07-3.95,0-43-22.37-77.92-50-77.92-24.49,0-44.84,27.46-49.13,63.69-.39,3.29-.66,6.64-.77,10.06-.05,1.38-.07,2.8-.07,4.17s0,2.64.06,3.95c.13,3.73.4,7.36.84,10.88q.5-4,1.28-7.92c.19-1,.39-2,.61-3,6.81-30.4,25.36-52.21,47.18-52.21S847.14,69,853.92,99.4c.14.67.29,1.34.43,2,.59,2.88,1.08,5.83,1.45,8.86Q856.46,104.91,856.64,99.35Z"/><path class="cls-8" d="M260.81,60.51a8.51,8.51,0,0,0,3.39-1,8.62,8.62,0,0,0,2.69-2.34,8.22,8.22,0,0,0,2.21.28,8.47,8.47,0,0,0,5.35-1.86A8.69,8.69,0,0,0,277.81,57a8.43,8.43,0,0,0,3.64-.11,8.62,8.62,0,0,0,3.28-1.62,8.8,8.8,0,0,0,2.32-2.85,8.39,8.39,0,0,0,3.54-1.14,8.76,8.76,0,0,0,2,3.22,8.51,8.51,0,0,0,6.83,2.61A8.41,8.41,0,0,0,303,56a8.47,8.47,0,0,0,3.86,1.1,8.64,8.64,0,0,0,3.94-.79c.21-.11.42-.19.62-.31a8,8,0,0,0,.83.41c-.18.14-.34.29-.51.44a8.4,8.4,0,0,0-2.07,2.86,8.53,8.53,0,0,0-.74,3.48,8.89,8.89,0,0,0,1.79,5.21,8.6,8.6,0,0,0,4.51,3.07,8.47,8.47,0,0,0,5.42-.29,8.55,8.55,0,0,0,4.17-3.53A8.43,8.43,0,0,0,326,63.2a8.57,8.57,0,0,0-5.19-7.89,8.56,8.56,0,0,0,3.35-6.79,8.66,8.66,0,0,0-2.53-6.09,8.43,8.43,0,0,0-6-2.49,8.57,8.57,0,0,0-4.22,1.12,8.61,8.61,0,0,0-2.58-.94,8.67,8.67,0,0,0-2.91-5.29,8.45,8.45,0,0,0-5.6-2.08h-.57a8.72,8.72,0,0,0-2.38-3.67,8.51,8.51,0,0,0-3.83-2,8.54,8.54,0,0,0-11.95-2.53,8.68,8.68,0,0,0-3,3.38,8.55,8.55,0,0,0-4.16-1.06,8.39,8.39,0,0,0-5.79,2.26,8.74,8.74,0,0,0-2.76,5.66,8.58,8.58,0,0,0-11.54.5,8.68,8.68,0,0,0-2.54,6.1,8.54,8.54,0,0,0,1.69,5.11,8.5,8.5,0,0,0-2,4.76A8.46,8.46,0,0,0,246,54a8.6,8.6,0,0,0,4.78,14.28,8.46,8.46,0,0,0,4.64-.47,8.63,8.63,0,0,0,3.71-2.86A8.82,8.82,0,0,0,260.81,60.51Z"/><path class="cls-3" d="M1063.3,47.93c-27.46,0-49.72,19.88-49.72,44.4a40.26,40.26,0,0,0,.61,7h98.22a40.27,40.27,0,0,0,.62-7C1113,67.81,1090.76,47.93,1063.3,47.93Z"/><path class="cls-3" d="M1273.91,99.35v87.39h-30.79a40,40,0,0,0,1.26-10c0-21.85-17.68-40-41-43.73,19.61-3.1,35.24-16.48,39.69-33.68Z"/><path class="cls-3" d="M1239.54,80.39a9.11,9.11,0,0,1,3.68-3.12,39.78,39.78,0,0,0-1.42-3.82,10,10,0,0,1-2.75-3.84,8.79,8.79,0,0,1-4.29-1.93,10.36,10.36,0,0,1-3-4.13,10.49,10.49,0,0,1-.68-5.08c-1.2-1.1-2.46-2.16-3.77-3.14a8.53,8.53,0,0,1-9.12-1.19,10.08,10.08,0,0,1-3.23-4.9,9.1,9.1,0,0,1-1.73-.13,9.74,9.74,0,0,1-3.06,3.47,8.63,8.63,0,0,1-3.33,1.41,8.74,8.74,0,0,1-3.6-.09,8.56,8.56,0,0,1-3.26-1.56,8.72,8.72,0,0,1-2.36-2.76,10.49,10.49,0,0,1-1.06-2.65,8.39,8.39,0,0,1-3.9.55,8.48,8.48,0,0,1-3.74-1.28c-.23,0-.45.06-.68.07a9.76,9.76,0,0,1-3.18,3.74,8.56,8.56,0,0,1-3.12,1.37,8.34,8.34,0,0,1-3.41,0A10.36,10.36,0,0,1,1175,58a10.51,10.51,0,0,1,.66,7.09,10.37,10.37,0,0,1-4,5.87,8.58,8.58,0,0,1-10-.15,8.88,8.88,0,0,1-2.38-2.65,8.12,8.12,0,0,1-.8.62,8.67,8.67,0,0,1-2.14,1.1,10.5,10.5,0,0,1-1.1,3.91,10.23,10.23,0,0,1-2.51,3.18,10.51,10.51,0,0,1-3.31,13,8.59,8.59,0,0,1-3.79,1.48,39.48,39.48,0,0,0,1.21,7.95h96.89c.28-1.12.51-2.26.71-3.41a8.73,8.73,0,0,1-3-1.63,10.48,10.48,0,0,1-3.58-6.57A10.61,10.61,0,0,1,1239.54,80.39Z"/><path class="cls-3" d="M977.63,122.87c.11-1.9.17-3.83.17-5.77,0-2.61-.11-5.16-.31-7.69-6.43,13.73-20.32,24-37.15,26.65,23.28,3.73,40.95,21.86,40.95,43.72a39.46,39.46,0,0,1-.61,6.95h33.51a39.46,39.46,0,0,1-.61-6.95c0-21.86,17.68-40,41-43.72-20.74-3.3-37-18.08-40.35-36.71H985A99.11,99.11,0,0,1,977.63,122.87Z"/><path class="cls-3" d="M1072.06,136.06c23.29,3.73,41,21.86,41,43.72a41.46,41.46,0,0,1-.61,6.95h34.43a40,40,0,0,1-1.26-10c0-21.86,17.68-40,41-43.73-19.6-3.11-35.24-16.48-39.68-33.68h-34.46C1109.1,118,1092.8,132.76,1072.06,136.06Z"/><path class="cls-3" d="M932.26,51c-20.92,0-38.52,20.47-43.87,48.34h87.74C970.78,71.48,953.17,51,932.26,51Z"/><path class="cls-3" d="M856.64,99.35q-.17,5.59-.84,10.88c-.37-3-.86-6-1.45-8.86-5.12,16.22-20.27,28.68-39.1,31.66,23.28,3.74,41,21.88,41,43.73a40,40,0,0,1-1.26,10h11.94V99.35Z"/><path class="cls-3" d="M922.81,136.06c-15.85-2.52-29.09-11.74-35.93-24.26-.1,1.75-.17,3.52-.17,5.31s.06,3.64.16,5.43a98.87,98.87,0,0,1-7.17-23.18H866.84v87.38h15.61a39.46,39.46,0,0,1-.61-7C881.85,157.92,899.53,139.75,922.81,136.06Z"/><path class="cls-9" d="M1247.44,68.29a7.08,7.08,0,0,0-3.64-1.82,9.48,9.48,0,0,0-1.36-2.53,11.13,11.13,0,0,0,.72-6.43,10.24,10.24,0,0,0-3-5.56l-.42-.36a11.18,11.18,0,0,0,.26-4.75,10.63,10.63,0,0,0-1.71-4.34,11,11,0,0,0-.68-4.53,9.77,9.77,0,0,0-2.44-3.69,6.89,6.89,0,0,0-3.58-1.81,6.5,6.5,0,0,0-3.9.54,10.78,10.78,0,0,0-1.12-6.06,7.89,7.89,0,0,0-3.27-3.48,6.63,6.63,0,0,0-4.44-.71,11.12,11.12,0,0,0,.44-4.18,10.77,10.77,0,0,0-1.13-4,8.12,8.12,0,0,0-2-2.62,7.11,7.11,0,0,0-2.76-1.47,6.73,6.73,0,0,0-3.06-.08,7,7,0,0,0-2.82,1.33,9,9,0,0,0-2.69,3.52,6.51,6.51,0,0,0-2.43.65,7.17,7.17,0,0,0-4.68-3.13,6.64,6.64,0,0,0-5.29,1.37l-.43.35a7,7,0,0,0-3.55-2,6.4,6.4,0,0,0-4,.4,6.54,6.54,0,0,0-3.78-.84,6.74,6.74,0,0,0-3.63,1.45,9.63,9.63,0,0,0-2.88,3.93,10.86,10.86,0,0,0-.72,5,6.83,6.83,0,0,0-3.68,1.46,9.28,9.28,0,0,0-2.43,2.93,10.55,10.55,0,0,0-1.14,3.8l-.58.22a6.54,6.54,0,0,0-3.78-.84,6.85,6.85,0,0,0-3.63,1.45,9.63,9.63,0,0,0-2.88,3.93,10.86,10.86,0,0,0-.72,5,6.83,6.83,0,0,0-3.68,1.46,9.89,9.89,0,0,0-3.39,5.58,11,11,0,0,0,.61,6.73,6.65,6.65,0,0,0-5.13,1.41,10,10,0,0,0-3.45,5.92,10.94,10.94,0,0,0,1,7,8.13,8.13,0,0,0,3.71,3.71,11.1,11.1,0,0,0,.78,5.51,10.21,10.21,0,0,0-3,5.84,11,11,0,0,0,1,6.62,8.12,8.12,0,0,0,2,2.61,7.08,7.08,0,0,0,2.77,1.47,6.55,6.55,0,0,0,3,.08,7,7,0,0,0,2.82-1.33,9.89,9.89,0,0,0,3.37-5.53,10.94,10.94,0,0,0-.56-6.69,9.63,9.63,0,0,0,2.13-3,10.6,10.6,0,0,0,.92-3.69,7.29,7.29,0,0,0,1.82-1c.24-.19.46-.38.68-.59a8,8,0,0,0,2,2.47,6.93,6.93,0,0,0,2.73,1.35,6.52,6.52,0,0,0,3,0,7,7,0,0,0,2.74-1.31,9.91,9.91,0,0,0,3.38-5.56,11,11,0,0,0-.59-6.7,10.12,10.12,0,0,0,3-6.16,6.55,6.55,0,0,0,2.89,0,6.88,6.88,0,0,0,2.66-1.3,8.94,8.94,0,0,0,2.69-3.52,1.65,1.65,0,0,0,.58-.07,6.65,6.65,0,0,0,3.16,1.21,6.5,6.5,0,0,0,3.31-.52,10.64,10.64,0,0,0,.9,2.5,8.18,8.18,0,0,0,2,2.6,6.85,6.85,0,0,0,2.76,1.47,6.47,6.47,0,0,0,3.06.08,6.89,6.89,0,0,0,2.82-1.32,9,9,0,0,0,2.59-3.27,7.29,7.29,0,0,0,1.47.12,9.6,9.6,0,0,0,2.74,4.62,6.92,6.92,0,0,0,3.72,1.82,6.53,6.53,0,0,0,4-.7l.33-.17a6.86,6.86,0,0,0,3.18,1.35,9.46,9.46,0,0,0-.32,1.75,10.78,10.78,0,0,0,.58,4.79,9.77,9.77,0,0,0,2.53,3.9,7.2,7.2,0,0,0,3.64,1.82,9.42,9.42,0,0,0,2.33,3.61l.12.13a7.16,7.16,0,0,0,3.64,1.82,7.77,7.77,0,0,0,.38.88,6.62,6.62,0,0,0-2.94.76,8,8,0,0,0-3.11,2.94,10.9,10.9,0,0,0-1.43,6.92,10.38,10.38,0,0,0,3,6.21,7.36,7.36,0,0,0,2.55,1.53,6.54,6.54,0,0,0,4.59-.07,7.52,7.52,0,0,0,3.66-3.14,11,11,0,0,0,.45-10.29,6.85,6.85,0,0,0,3.41-1,7.88,7.88,0,0,0,2.61-2.68,10.91,10.91,0,0,0,1.41-6.9A10.26,10.26,0,0,0,1247.44,68.29Z"/><path class="cls-10" d="M977.63,122.87A98.7,98.7,0,0,0,985,99.35,113.62,113.62,0,0,0,986.82,79c0-43.65-24.42-79-54.49-79s-54.45,35.37-54.45,79a113.61,113.61,0,0,0,1.83,20.33,99.36,99.36,0,0,0,7.18,23.18c-.1-1.79-.16-3.6-.16-5.43s.06-3.56.17-5.31a91.06,91.06,0,0,1,1.51-12.44c5.35-27.87,23-48.34,43.86-48.34s38.53,20.47,43.88,48.34a91.72,91.72,0,0,1,1.35,10.06c.21,2.53.32,5.08.32,7.69C977.8,119.05,977.74,121,977.63,122.87Z"/></g><path class="cls-11" d="M106,185.25H1246c58.54,0,106,24.88,106,55.56s-47.46,55.55-106,55.55H106c-58.54,0-106-24.87-106-55.55S47.46,185.25,106,185.25Z"/><path class="cls-11" d="M106,185.25H1246c58.54,0,106,24.88,106,55.56s-47.46,55.55-106,55.55H106c-58.54,0-106-24.87-106-55.55S47.46,185.25,106,185.25Z"/><path class="cls-12" d="M246.35,225.54a27.28,27.28,0,0,1-3.25,13,24.78,24.78,0,0,1-10.41,10q-7.14,3.78-18.34,3.78H198V289H183.14v-90.4h31.21q10.41,0,17.56,3.64a24,24,0,0,1,10.8,9.62A26.17,26.17,0,0,1,246.35,225.54Zm-32,14.7q8.46,0,12.62-3.77t4.16-10.93q0-14.82-16.78-14.83H198v29.53Zm61-12.49a22.9,22.9,0,0,1,8.59-8.45,25.5,25.5,0,0,1,12.87-3.12v15.35H293q-8.72,0-13.26,4.42t-4.43,15.35V289H260.49V217.35h14.83Zm66.18,62.44a37.17,37.17,0,0,1-18.34-4.55,33.89,33.89,0,0,1-12.88-13,39.63,39.63,0,0,1-4.68-19.51,38.53,38.53,0,0,1,4.81-19.38,33.21,33.21,0,0,1,13.14-13,40.29,40.29,0,0,1,37.2,0,33.21,33.21,0,0,1,13.14,13,38.43,38.43,0,0,1,4.81,19.38,37.65,37.65,0,0,1-4.94,19.38,34.66,34.66,0,0,1-13.53,13.14A38.91,38.91,0,0,1,341.5,290.19Zm0-12.88a21.72,21.72,0,0,0,10.67-2.73,20.63,20.63,0,0,0,8.19-8.2,30,30,0,0,0,.13-26.4,20.09,20.09,0,0,0-7.93-8.19,22.13,22.13,0,0,0-21.33,0,19.55,19.55,0,0,0-7.68,8.19,27.48,27.48,0,0,0-2.86,13.14q0,11.56,5.85,17.95A19.88,19.88,0,0,0,341.5,277.31Zm81.91-47.87H410.14V289h-15V229.44h-8.45V217.35h8.45v-5.08q0-12.35,6.51-18t20.68-5.72V201q-6.76,0-9.5,2.6t-2.73,8.71v5.08h13.27Zm78.83,22a47.24,47.24,0,0,1-.52,7.28H447a19.87,19.87,0,0,0,6.37,13.79,20.11,20.11,0,0,0,14.05,5.2q12,0,16.91-10h16a32.4,32.4,0,0,1-11.83,16.25q-8.46,6.26-21.07,6.25a37.43,37.43,0,0,1-18.47-4.55,34.06,34.06,0,0,1-12.75-13,44.4,44.4,0,0,1-.13-38.89,31.91,31.91,0,0,1,12.62-13,37.84,37.84,0,0,1,18.73-4.55,36.49,36.49,0,0,1,18.08,4.42,31.06,31.06,0,0,1,12.35,12.49A37,37,0,0,1,502.24,251.43Zm-15.48-4.69a16.86,16.86,0,0,0-5.86-13.13,20.89,20.89,0,0,0-14.17-5,18.88,18.88,0,0,0-13.14,5q-5.46,4.8-6.5,13.13Zm56.08,43.45a37.34,37.34,0,0,1-15.22-3,27.56,27.56,0,0,1-10.53-8.33A21,21,0,0,1,512.93,267h15.34a10.75,10.75,0,0,0,4.3,7.68,16.36,16.36,0,0,0,10,3c4.17,0,7.37-.78,9.63-2.34a7.39,7.39,0,0,0,3.51-6.24,6.35,6.35,0,0,0-3.9-6,69.62,69.62,0,0,0-12.1-4.29,116.43,116.43,0,0,1-13.14-4.29,23.5,23.5,0,0,1-8.84-6.38q-3.65-4.29-3.64-11.31a17.32,17.32,0,0,1,3.38-10.41,22.31,22.31,0,0,1,9.62-7.54,36.72,36.72,0,0,1,14.57-2.73q12.23,0,19.64,6.24t8.07,16.78H554.55a10.54,10.54,0,0,0-3.9-7.67q-3.51-2.86-9.5-2.87t-9,2.21a6.86,6.86,0,0,0-3.12,5.86,6.32,6.32,0,0,0,2.08,4.81,15.51,15.51,0,0,0,5.07,3.12q3,1.05,8.84,2.73a85.63,85.63,0,0,1,12.75,4.3,23,23,0,0,1,8.72,6.24q3.63,4.15,3.77,11.06a18.57,18.57,0,0,1-3.38,10.92,22.42,22.42,0,0,1-9.63,7.55A35.17,35.17,0,0,1,542.84,290.19Zm69.48,0a37.3,37.3,0,0,1-15.21-3,27.52,27.52,0,0,1-10.54-8.33A21,21,0,0,1,582.41,267h15.35a10.74,10.74,0,0,0,4.29,7.68,16.38,16.38,0,0,0,10,3q6.26,0,9.63-2.34a7.39,7.39,0,0,0,3.51-6.24,6.35,6.35,0,0,0-3.9-6,69.31,69.31,0,0,0-12.1-4.29,116.18,116.18,0,0,1-13.13-4.29,23.53,23.53,0,0,1-8.85-6.38q-3.65-4.29-3.64-11.31A17.39,17.39,0,0,1,587,226.45a22.34,22.34,0,0,1,9.63-7.54,36.67,36.67,0,0,1,14.56-2.73q12.24,0,19.65,6.24t8.06,16.78H624a10.54,10.54,0,0,0-3.9-7.67q-3.51-2.86-9.5-2.87t-9,2.21a6.86,6.86,0,0,0-3.12,5.86,6.32,6.32,0,0,0,2.08,4.81,15.73,15.73,0,0,0,5.07,3.12c2,.7,4.94,1.61,8.85,2.73a85.86,85.86,0,0,1,12.74,4.3,22.9,22.9,0,0,1,8.72,6.24q3.64,4.15,3.77,11.06a18.57,18.57,0,0,1-3.38,10.92,22.36,22.36,0,0,1-9.63,7.55A35.17,35.17,0,0,1,612.32,290.19Zm74.56,0a37.17,37.17,0,0,1-18.34-4.55,33.83,33.83,0,0,1-12.88-13A39.63,39.63,0,0,1,651,253.12a38.43,38.43,0,0,1,4.81-19.38,33.21,33.21,0,0,1,13.14-13,40.29,40.29,0,0,1,37.2,0,33.21,33.21,0,0,1,13.14,13,38.43,38.43,0,0,1,4.81,19.38,37.75,37.75,0,0,1-4.94,19.38,34.73,34.73,0,0,1-13.53,13.14A38.93,38.93,0,0,1,686.88,290.19Zm0-12.88a21.72,21.72,0,0,0,10.67-2.73,20.63,20.63,0,0,0,8.19-8.2,30,30,0,0,0,.13-26.4,20.09,20.09,0,0,0-7.93-8.19,22.15,22.15,0,0,0-21.34,0,19.6,19.6,0,0,0-7.67,8.19,27.48,27.48,0,0,0-2.86,13.14q0,11.56,5.85,17.95A19.88,19.88,0,0,0,686.88,277.31Zm66.69-49.56a23,23,0,0,1,8.58-8.45A25.54,25.54,0,0,1,775,216.18v15.35h-3.77q-8.71,0-13.27,4.42t-4.42,15.35V289H738.74V217.35h14.83Zm132.09-2.21a27.28,27.28,0,0,1-3.25,13,24.82,24.82,0,0,1-10.4,10q-7.15,3.78-18.34,3.78H837.28V289H822.45v-90.4h31.22q10.4,0,17.55,3.64a24,24,0,0,1,10.8,9.62A26.17,26.17,0,0,1,885.66,225.54Zm-32,14.7q8.45,0,12.61-3.77t4.16-10.93q0-14.82-16.77-14.83H837.28v29.53Zm61-47.48V289H899.81V192.76ZM999,217.35V289H984.18v-8.46a24.5,24.5,0,0,1-9.24,7,29.33,29.33,0,0,1-12,2.47,32.54,32.54,0,0,1-15.22-3.51,25.94,25.94,0,0,1-10.54-10.41q-3.76-6.9-3.77-16.65V217.35h14.7v39.93q0,9.63,4.81,14.83t13.14,5.07q8.32,0,13.14-5.07t4.94-14.83V217.35Zm34.39,10.4a22.9,22.9,0,0,1,8.59-8.45,25.5,25.5,0,0,1,12.87-3.12v15.35h-3.77q-8.71,0-13.27,4.42t-4.42,15.35V289h-14.83V217.35h14.83Zm30.15,25.11a40.11,40.11,0,0,1,4.42-19.12,33,33,0,0,1,29.4-17.56,30.34,30.34,0,0,1,14.7,3.38,29.29,29.29,0,0,1,10.15,8.19v-10.4h15V289h-15V278.35a29.57,29.57,0,0,1-10.28,8.46,33.49,33.49,0,0,1-31.74-1.3A34.84,34.84,0,0,1,1068,272.24,41.71,41.71,0,0,1,1063.55,252.86Zm58.67.26a25.52,25.52,0,0,0-3.13-12.88,21.28,21.28,0,0,0-37.33-.13,25.71,25.71,0,0,0-3,12.75,27.17,27.17,0,0,0,3,13,22.7,22.7,0,0,0,8.07,8.59,21.34,21.34,0,0,0,10.66,2.86,20.83,20.83,0,0,0,18.6-11.19A26.22,26.22,0,0,0,1122.22,253.12Zm49.26-60.36V289h-14.83V192.76Z"/></g></g></svg>