<svg xmlns="http://www.w3.org/2000/svg" viewBox="0 0 1673.46 277.11"><defs><style>.cls-1{fill:#564a99;fill-opacity:0.81;}.cls-1,.cls-2{fill-rule:evenodd;}.cls-2{fill:#9291c7;fill-opacity:0.59;}</style></defs><g id="Camada_2" data-name="Camada 2"><g id="Camada_1-2" data-name="Camada 1"><path class="cls-1" d="M699.44,33.15c13.18.53,24.25,4.2,29.22,9.07a20.83,20.83,0,0,1,10-2,18.13,18.13,0,0,1,12.52,5.31c2.87-5.36,9.65-9,17.17-8.71a19,19,0,0,1,10.27,3.35,20.72,20.72,0,0,1,10.83-2.5c9.52.39,16.63,7,15.89,14.68,0,.26-.06.51-.1.76a14.59,14.59,0,0,1,7.88,7.73c14.27,2.13,24.4,8,23.77,14.57-.68,7-13.67,12.38-29.93,12.69a18.62,18.62,0,0,1-7.66,4.35,6.81,6.81,0,0,1,0,1c-.75,7.73-16.27,13.39-34.67,12.65-13.61-.55-25-4.44-29.68-9.55-3,5.16-9.62,8.65-17,8.35a18,18,0,0,1-12.75-5.55c-2.75,5.57-9.67,9.41-17.37,9.1-7.07-.28-12.81-4-15-9A66.58,66.58,0,0,1,650,102.13c-18.4-.74-32.72-7.61-32-15.33A8.1,8.1,0,0,1,621,81.65c-14.33-2.11-24.52-8-23.89-14.59.6-6.22,10.8-11.11,24.37-12.38a6.14,6.14,0,0,1-.13-2C622.07,45,637.59,39.34,656,40.08a76.2,76.2,0,0,1,9.66,1,19.18,19.18,0,0,1,4-1.89C675.7,35.11,686.9,32.64,699.44,33.15Z"/><path class="cls-2" d="M869.3,114.67c22.3,0,41.59-4,50.76-10a43,43,0,0,0,16.47,3.16c8.76,0,16.63-2.34,22-6.08,4,7,14.79,12,27.53,12.06a42.05,42.05,0,0,0,17.87-3.71,42.12,42.12,0,0,0,17.86,3.79c16.12,0,29.2-8,29.22-17.87,0-.32,0-.64,0-1,6.58-1.91,11.81-5.28,14.57-9.44,24.41-1.93,42.47-8.91,42.49-17.28,0-9-21-16.56-48.39-17.86a31.45,31.45,0,0,0-12.2-6,5.61,5.61,0,0,0,.15-1.29c0-9.9-25.22-18-56.38-18.06-23-.05-42.85,4.29-51.64,10.56-4.17-6.76-14.79-11.57-27.25-11.6-9,0-17,2.46-22.41,6.38C886.17,23.28,875.13,18,862.08,18c-12,0-22.26,4.38-26.78,10.7-10-2.93-23.34-4.72-38-4.76-31.16-.07-56.44,7.9-56.46,17.8,0,2.38,1.45,4.66,4.09,6.74-24.52,1.9-42.69,8.9-42.71,17.29,0,8,16.31,14.75,38.91,17.14a7.78,7.78,0,0,0-2.7,5.48c0,9.9,25.22,18,56.38,18.05a164.66,164.66,0,0,0,23.58-1.58c.5.18,1,.34,1.53.5C829.56,110.85,848.05,114.62,869.3,114.67Z"/><path class="cls-1" d="M1149.33,208.61c21,0,39.09-6.08,47.71-15a27.85,27.85,0,0,0,36.14-4.42,27.69,27.69,0,0,0,42.64,12.46,27.6,27.6,0,0,0,16.77,5.66c15.15,0,27.45-12,27.48-26.83,0-.48,0-1,0-1.45a27.21,27.21,0,0,0,13.7-14.18c22.93-2.91,39.91-13.41,39.94-26,0-13.56-19.72-24.82-45.44-26.73a27.45,27.45,0,0,0-11.45-8.94,14,14,0,0,0,.14-1.94c0-14.85-23.68-26.94-53-27-21.64-.05-40.27,6.49-48.53,15.9a27.68,27.68,0,0,0-46.66-7.76,27.62,27.62,0,0,0-51.28-2.77c-9.41-4.37-21.93-7-35.67-7.08-29.28-.06-53,11.92-53.08,26.77a16.15,16.15,0,0,0,3.84,10.1c-23,2.88-40.12,13.41-40.15,26,0,12,15.37,22.14,36.68,25.68a14.22,14.22,0,0,0-.51,3.73c0,14.85,23.67,26.94,53,27a101,101,0,0,0,15.46-1.13,27.27,27.27,0,0,0,6,3.94C1112,202.93,1129.37,208.57,1149.33,208.61Z"/><path class="cls-1" d="M812.3,277.11c21.45,0,40-5.65,48.84-13.95A30.37,30.37,0,0,0,877,267.55a29.57,29.57,0,0,0,21.16-8.5c3.81,9.75,14.21,16.76,26.46,16.79a30.16,30.16,0,0,0,17.2-5.19A30.25,30.25,0,0,0,959,275.92c15.51,0,28.1-11.13,28.13-24.94,0-.46,0-.91,0-1.35a26.58,26.58,0,0,0,14-13.19c23.48-2.7,40.86-12.47,40.89-24.14,0-12.61-20.2-23.08-46.52-24.86a28,28,0,0,0-11.73-8.32,12.05,12.05,0,0,0,.14-1.81c0-13.81-24.24-25.06-54.22-25.12-22.15-.05-41.22,6-49.67,14.77-4-9.42-14.22-16.13-26.2-16.15a29.5,29.5,0,0,0-21.57,8.92c-3.57-10.13-14.18-17.49-26.73-17.52-11.51,0-21.42,6.12-25.77,14.94-9.64-4.06-22.45-6.56-36.52-6.59-30-.07-54.3,11.07-54.33,24.88a14.21,14.21,0,0,0,3.93,9.4c-23.58,2.67-41.07,12.46-41.1,24.17,0,11.13,15.75,20.6,37.56,23.88a12.49,12.49,0,0,0-.53,3.48c0,13.81,24.25,25.06,54.22,25.12a113.36,113.36,0,0,0,15.83-1,28.05,28.05,0,0,0,6.1,3.66C774.09,271.82,791.87,277.06,812.3,277.11Z"/><path class="cls-1" d="M427.46,218.56c21,.05,39.09-6.08,47.71-15a27.83,27.83,0,0,0,36.13-4.42A27.7,27.7,0,0,0,554,211.59a27.6,27.6,0,0,0,16.77,5.66c15.14,0,27.45-12,27.48-26.82,0-.49,0-1,0-1.46a27.17,27.17,0,0,0,13.69-14.17c22.94-2.92,39.92-13.42,39.95-26,0-13.56-19.72-24.82-45.44-26.72a27.34,27.34,0,0,0-11.46-8.94,14.23,14.23,0,0,0,.15-2c0-14.85-23.68-26.94-53-27-21.64,0-40.27,6.49-48.53,15.9a27.68,27.68,0,0,0-46.66-7.76,27.62,27.62,0,0,0-51.28-2.76c-9.41-4.38-21.93-7.06-35.67-7.09-29.28-.06-53,11.92-53.08,26.77a16.1,16.1,0,0,0,3.84,10.1c-23,2.88-40.12,13.41-40.15,26,0,12,15.37,22.15,36.68,25.68a14.22,14.22,0,0,0-.51,3.73c0,14.85,23.67,26.94,52.95,27a101,101,0,0,0,15.46-1.13,27.44,27.44,0,0,0,6,3.94C390.13,212.89,407.5,218.52,427.46,218.56Z"/><path class="cls-2" d="M282.3,131.34c37.68.08,70.27-5.43,85.77-13.5a87.93,87.93,0,0,0,27.82,4.31c14.81,0,28.1-3.16,37.15-8.24,6.72,9.5,25,16.34,46.52,16.39a85.93,85.93,0,0,0,30.2-5,86,86,0,0,0,30.18,5.16c27.23.06,49.34-10.79,49.37-24.24,0-.44,0-.88-.07-1.31,11.12-2.58,20-7.16,24.6-12.81C655.09,89.49,685.6,80,685.63,68.65c0-12.27-35.52-22.5-81.77-24.28-5.23-3.55-12.35-6.38-20.62-8.12a6.62,6.62,0,0,0,.25-1.76c0-13.45-42.63-24.44-95.29-24.56-38.92-.09-72.41,5.79-87.24,14.29C393.9,15.05,376,8.5,354.9,8.45c-15.21,0-28.81,3.33-37.87,8.66C310.74,7.24,292.09.05,270,0c-20.22,0-37.62,5.92-45.25,14.5-16.93-4-39.44-6.43-64.16-6.48C108,7.9,65.26,18.7,65.23,32.15c0,3.23,2.45,6.32,6.92,9.15C30.73,43.86,0,53.36,0,64.76,0,75.59,27.69,84.84,66,88.08a6.91,6.91,0,0,0-.92,3.38c0,13.44,42.63,24.44,95.29,24.56,9.67,0,19-.33,27.79-1a66.8,66.8,0,0,0,10.73,3.58C215.16,126.12,246.41,131.26,282.3,131.34Z"/><path class="cls-2" d="M1297.24,175.34c35,1,65.37-5.58,80-15.89a59.77,59.77,0,0,0,25.65,6.31c13.74.38,26.18-3.54,34.74-10,5.91,12.7,22.63,22.15,42.59,22.7a58.86,58.86,0,0,0,28.18-6,58.87,58.87,0,0,0,27.81,7.5c25.25.69,46.13-13.15,46.61-30.9,0-.58,0-1.16,0-1.74,10.4-3.16,18.75-9,23.26-16.37,38.34-2.49,67-14.32,67.38-29.33.45-16.21-32.17-30.52-75-33.92a46.82,46.82,0,0,0-18.85-11.18,12.08,12.08,0,0,0,.3-2.32c.48-17.76-38.71-33.24-87.54-34.58-36.1-1-67.35,6-81.4,16.92-6.24-12.28-22.66-21.33-42.18-21.87-14.1-.38-26.84,3.76-35.42,10.58-5.5-13.18-22.55-23.09-43-23.65-18.76-.51-35.09,7-42.46,18.14-15.57-5.63-36.37-9.38-59.29-10-48.83-1.34-88.82,12-89.3,29.73-.12,4.27,2.06,8.41,6.11,12.25-38.51,2.44-67.31,14.3-67.72,29.36-.4,14.31,25,27.14,60.43,32.29a12.31,12.31,0,0,0-1,4.44c-.49,17.76,38.7,33.24,87.54,34.58a238.86,238.86,0,0,0,25.81-.68,50.54,50.54,0,0,0,9.83,5C1235.15,167,1264,174.43,1297.24,175.34Z"/><path class="cls-2" d="M738.92,254.74c38.64.08,72.06-7.22,88-17.89a71.85,71.85,0,0,0,28.52,5.67c15.18,0,28.82-4.19,38.1-10.91,6.88,12.55,25.62,21.58,47.69,21.63a70.55,70.55,0,0,0,31-6.66,70.71,70.71,0,0,0,30.94,6.8c27.93.06,50.6-14.29,50.64-32,0-.59,0-1.17-.07-1.74,11.4-3.42,20.46-9.48,25.24-16.94,42.29-3.45,73.59-16,73.62-31,0-16.21-36.4-29.71-83.83-32-5.36-4.68-12.65-8.41-21.14-10.71a10.81,10.81,0,0,0,.26-2.33c0-17.76-43.7-32.26-97.69-32.38-39.9-.09-74.24,7.7-89.46,18.94C853.43,101,835,92.37,813.44,92.32c-15.59,0-29.54,4.43-38.83,11.46-6.44-13-25.57-22.52-48.18-22.57-20.73,0-38.57,7.85-46.4,19.19-17.36-5.24-40.44-8.46-65.79-8.52-54-.12-97.79,14.18-97.83,32,0,4.27,2.51,8.35,7.09,12.09-42.48,3.4-74,16-74,31,0,14.32,28.38,26.52,67.68,30.78a11.49,11.49,0,0,0-.95,4.46c0,17.77,43.7,32.26,97.69,32.38,9.92,0,19.49-.44,28.51-1.32a58.57,58.57,0,0,0,11,4.72C670.07,247.89,702.11,254.66,738.92,254.74Z"/></g></g></svg>