<svg xmlns="http://www.w3.org/2000/svg" viewBox="0 0 345.58 320.87"><defs><style>.cls-1{fill:#d4a359;}.cls-2{fill:#ad215f;}.cls-3{fill:#ad587e;}.cls-4{fill:#dec49e;}.cls-12,.cls-5{fill:none;}.cls-6{fill:#e683b0;}.cls-7{fill:#958693;}.cls-8{fill:#957491;}.cls-9{fill:#d4b88e;}.cls-10{fill:#cbcfd9;}.cls-11{fill:#001240;}.cls-12{stroke:#1d1d1b;stroke-linecap:round;stroke-linejoin:bevel;stroke-width:6px;}.cls-13{fill:#d4c3aa;}.cls-14{fill:#95708f;}.cls-15{fill:#f39200;}.cls-16{fill:#99763f;}</style></defs><g id="Camada_2" data-name="Camada 2"><g id="Corpo_man"><path class="cls-1" d="M167.82,117.36h13.52a23.43,23.43,0,0,1,23.43,23.43V175a0,0,0,0,1,0,0H144.39a0,0,0,0,1,0,0V140.8A23.43,23.43,0,0,1,167.82,117.36Z"/><path class="cls-2" d="M287.2,238.57c-8.33-28.56-26.18-49.21-41.46-49-4.38-22-20.12-40.14-41.15-48.64a10.77,10.77,0,0,1,.3,2.47c0,9.72-13.43,17.6-30,17.6s-30-7.88-30-17.6a11,11,0,0,1,1.14-4.81c-27.28,7.94-47.43,31.52-49,59.84-14.38,2.16-31.48,20-41.55,44.82-12.19,30.08-9.5,59.13,6,64.89a17,17,0,0,0,8.3.81,109.61,109.61,0,0,0,24.84,8.88c26.64,6.22,50.41,2.74,53.1-7.78.91-3.56-.72-7.48-4.31-11.35h48.27a9,9,0,0,0-1.19,7c2.93,10.05,27.88,12.17,55.72,4.74,7.75-2.07,14.91-2.35,21.13-5.23,9.3-4.29,20.6-11.26,20.6-16.35a49.08,49.08,0,0,0,2.88-11.31C292.4,266.42,291.33,252.75,287.2,238.57Z"/><path class="cls-3" d="M282.12,240.36c-8-25.9-25.05-44.63-39.66-44.49-4.2-19.94-19.26-36.39-39.38-44.1a8.86,8.86,0,0,1,.29,2.23c0,8.82-12.85,16-28.7,16S146,162.82,146,154a9.44,9.44,0,0,1,1.09-4.35c-26.1,7.19-45.38,28.58-46.92,54.26C86.39,205.87,70,222,60.39,244.56c-11.66,27.28-9.08,53.62,5.76,58.84a17,17,0,0,0,7.94.74,108.57,108.57,0,0,0,23.77,8.05c25.49,5.64,48.24,2.49,50.81-7.06.87-3.23-.69-6.78-4.13-10.29h46.19a7.79,7.79,0,0,0-1.14,6.35c2.8,9.12,26.67,11,53.31,4.29,7.42-1.87,14.26-2.12,20.22-4.74,8.9-3.89,19.71-10.21,19.71-14.82a43.05,43.05,0,0,0,2.76-10.26C287.1,265.61,286.08,253.22,282.12,240.36Z"/><ellipse class="cls-4" cx="174.21" cy="136.84" rx="28.47" ry="15.3"/><line class="cls-5" x1="289.96" y1="107.82" x2="292.17" y2="108.8"/><rect class="cls-6" x="118.13" y="292.85" width="103.08" height="0.17"/><path class="cls-7" d="M276.89,241.11c-7.38-18.75-23.19-32.31-36.72-32.21-5.42-20.12-30.37-35.34-60.32-35.34h-10.1c-32.79,0-59.56,18.22-61.32,41.16-12.74,1.42-27.88,13.1-36.8,29.43C60.83,263.89,63.22,283,77,286.74a19.9,19.9,0,0,0,7.35.54,121.73,121.73,0,0,0,22,5.83c23.6,4.08,44.66,1.8,47-5.11.81-2.34-.63-4.91-3.81-7.45h42.76c-1.22,1.61-1.62,3.16-1.06,4.59,2.59,6.6,24.69,8,49.35,3.11,6.87-1.36,13.2-1.54,18.72-3.43,8.24-2.82,18.25-7.39,18.25-10.73a26.3,26.3,0,0,0,2.55-7.42C281.5,259.39,280.55,250.41,276.89,241.11Z"/><path class="cls-5" d="M108.93,261.07c6.39,2.24,10.06,9.27,7.85,15.05"/><path class="cls-5" d="M120.55,294l-6.78-23.69-3.14-11"/><path class="cls-8" d="M136.45,295.25c-6.84,7.95-36.13,13.21-58.09,5.33s-28.29-25.94-21.44-33.89,30.2-8,52.16-.1S143.3,287.31,136.45,295.25Z"/><path class="cls-8" d="M278.68,279.9c-3-8.07-26-11.72-51.34-8.14s-43.43,13-40.42,21.09,26.87,17.59,52.21,14S281.7,288,278.68,279.9Z"/><line class="cls-5" x1="240.72" y1="262.17" x2="229.16" y2="296.49"/><line class="cls-5" x1="231.86" y1="204.07" x2="229.82" y2="204.07"/><line class="cls-5" x1="242.12" y1="264.62" x2="240.32" y2="262.16"/><line class="cls-5" x1="231.86" y1="204.07" x2="242.12" y2="264.62"/><rect class="cls-1" x="114.83" y="54.09" width="116.02" height="21.35" rx="8.04"/><path class="cls-9" d="M197.74,21.48H150.68c-13.36,0-24.19,9.63-24.19,21.5V103.8c0,16.71,15.25,30.26,34.06,30.26h27.32c18.81,0,34.06-13.55,34.06-30.26V43C221.93,31.11,211.1,21.48,197.74,21.48Z"/><ellipse class="cls-10" cx="157.26" cy="68.21" rx="14.31" ry="15.92"/><ellipse class="cls-11" cx="161.67" cy="68.21" rx="9.9" ry="14.72"/><ellipse class="cls-10" cx="189.9" cy="68.21" rx="14.31" ry="15.92"/><ellipse class="cls-11" cx="196.32" cy="68.21" rx="9.9" ry="14.72"/><path class="cls-12" d="M147.88,99.24c8.72,14.3,28.69,19.67,44.59,12a32.36,32.36,0,0,0,8.08-5.51"/><path class="cls-11" d="M231.27,15l-4.15,30.43a1.54,1.54,0,0,1-.59,1l-6.32,5.13a2,2,0,0,1-2.89-.45l-8.89-15a8.16,8.16,0,0,1-.1-8.28,1.44,1.44,0,0,0,.2-.73,1.76,1.76,0,0,0-1.86-1.65H168.86l-22.13-.4-2.51,0a1.77,1.77,0,0,0-1.9,1.65,1.52,1.52,0,0,0,.18.7,8.16,8.16,0,0,1-.28,8.28L133,50.49a2,2,0,0,1-2.9.39l-6.2-5.24a1.57,1.57,0,0,1-.56-1l-3.46-30.49C119,6.46,125.86-.16,134.53,0L169,.63h47.93C225.61.63,232.32,7.37,231.27,15Z"/><ellipse class="cls-1" cx="175.59" cy="94.91" rx="12.82" ry="4.34"/><ellipse class="cls-13" cx="175.59" cy="93.36" rx="14.28" ry="4.08"/><path class="cls-14" d="M137.7,259.44a87,87,0,0,1-1-14.23,81.89,81.89,0,0,1,6.2-30.88c-19,1.31-34.16,20.82-34.44,44.84Z"/><path class="cls-14" d="M208.65,243.08a85.93,85.93,0,0,1-1.82,16.79l27.83.25c.26-22.73-12.94-41.67-30.39-45A82.75,82.75,0,0,1,208.65,243.08Z"/><polygon class="cls-15" points="233.43 301.1 174.68 301.1 115.92 301.1 115.92 280.73 101.13 235.48 175.59 237.3 250.04 235.48 233.43 280.73 233.43 301.1"/><path class="cls-1" d="M94.58,297h154a21.6,21.6,0,0,1,21.6,21.6v0a0,0,0,0,1,0,0H73a0,0,0,0,1,0,0v0A21.6,21.6,0,0,1,94.58,297Z"/><rect class="cls-16" y="306.99" width="345.58" height="13.88" rx="6.94"/></g></g></svg>